Coordinates
version=1
nRows=30
nColumns=30
inDegrees=yes

Units are S.I. units (second, meters, Newtons, ...)
Angles are in degrees.

endheader
time	floatyaw	floatroll	floatpitch	floatx	floaty	floatz	pro_sup_l	deviation_l	flexion_l	cmc_flexion_l	cmc_abduction_l	mp_flexion_l	ip_flexion_l	2mcp_flexion_l	2mcp_abduction_l	2pm_flexion_l	2md_flexion_l	3mcp_flexion_l	3mcp_abduction_l	3pm_flexion_l	3md_flexion_l	4mcp_flexion_l	4mcp_abduction_l	4pm_flexion_l	4md_flexion_l	5mcp_flexion_l	5mcp_abduction_l	5pm_flexion_l	5md_flexion_l
-1.495000	-160.147433	-5.066637	-73.570646	0.081507	-0.181860	-0.017461	102.777208	3.839248	-0.555805	12.883942	9.316858	-25.961874	-41.404403	28.937241	6.793232	43.805241	29.979874	23.554608	4.310148	45.075641	30.138056	12.801733	-4.351693	52.223316	36.319747	1.489338	-8.340275	61.260433	42.492874
-1.485000	-160.147433	-5.066637	-73.570646	0.081498	-0.181855	-0.017466	102.789503	3.844922	-0.557977	12.869738	9.314925	-25.973233	-41.415471	28.948627	6.793547	43.798544	29.978594	23.553432	4.313074	45.080165	30.139773	12.811929	-4.350966	52.216418	36.318257	1.499745	-8.345790	61.270390	42.500173
-1.475000	-160.147433	-5.066637	-73.570646	0.081493	-0.181848	-0.017469	102.800320	3.850774	-0.556494	12.854483	9.302309	-25.977535	-41.415570	28.951616	6.796280	43.798672	29.982200	23.553014	4.315495	45.083520	30.139080	12.818509	-4.348321	52.205291	36.314347	1.511791	-8.351597	61.275121	42.503617
-1.465000	-160.147433	-5.066637	-73.570646	0.081491	-0.181842	-0.017470	102.806758	3.855375	-0.551499	12.834123	9.289554	-25.975139	-41.405050	28.948172	6.800128	43.803595	29.990315	23.552400	4.316681	45.088230	30.139330	12.819002	-4.344534	52.192189	36.310849	1.522476	-8.356837	61.273983	42.503622
-1.455000	-160.147433	-5.066637	-73.570646	0.081491	-0.181837	-0.017470	102.804094	3.856365	-0.543608	12.804541	9.289527	-25.967591	-41.387800	28.942516	6.803870	43.808053	29.999937	23.551368	4.315969	45.095870	30.142798	12.812863	-4.340855	52.179694	36.310001	1.527683	-8.360745	61.269026	42.502836
-1.445000	-160.147433	-5.066637	-73.570646	0.081490	-0.181834	-0.017469	102.789052	3.851910	-0.533641	12.765383	9.309750	-25.957756	-41.370300	28.939482	6.806800	43.805878	30.006775	23.550012	4.313247	45.105650	30.149552	12.801219	-4.338385	52.169838	36.312901	1.523952	-8.363223	61.263883	42.504527
-1.435000	-160.147433	-5.066637	-73.570646	0.081487	-0.181833	-0.017469	102.762943	3.842122	-0.522345	12.721492	9.347863	-25.949213	-41.358332	28.942429	6.808756	43.793514	30.007934	23.547886	4.309249	45.114982	30.157979	12.785975	-4.337612	52.163854	36.319606	1.510621	-8.364752	61.261267	42.510380
-1.425000	-160.147433	-5.066637	-73.570646	0.081482	-0.181830	-0.017468	102.732486	3.829479	-0.510310	12.681061	9.392235	-25.944914	-41.353780	28.951762	6.809907	43.772392	30.003865	23.543637	4.305405	45.121304	30.166139	12.768928	-4.338331	52.162367	36.329476	1.490868	-8.365692	61.260829	42.519069
-1.415000	-160.147433	-5.066637	-73.570646	0.081476	-0.181825	-0.017468	102.707517	3.817974	-0.498161	12.651883	9.426943	-25.945933	-41.354034	28.964840	6.810575	43.748384	29.998018	23.535727	4.303271	45.123499	30.172713	12.751450	-4.339904	52.165593	36.341412	1.470640	-8.365600	61.259186	42.526701
-1.405000	-160.147433	-5.066637	-73.570646	0.081471	-0.181817	-0.017469	102.696709	3.811474	-0.486880	12.637945	9.438729	-25.951213	-41.354341	28.977381	6.811258	43.728571	29.994415	23.523816	4.303827	45.122019	30.177076	12.734841	-4.341676	52.173314	36.353975	1.455926	-8.363301	61.252356	42.529070
-1.395000	-160.147433	-5.066637	-73.570646	0.081466	-0.181806	-0.017471	102.703551	3.812101	-0.477927	12.637977	9.423114	-25.958494	-41.351206	28.985741	6.812724	43.717327	29.994903	23.509655	4.307071	45.118170	30.178984	12.720858	-4.343348	52.184770	36.365627	1.450069	-8.357787	61.238892	42.524322
-1.385000	-160.147433	-5.066637	-73.570646	0.081464	-0.181795	-0.017472	102.724571	3.819309	-0.472884	12.646276	9.387193	-25.965802	-41.344458	28.988966	6.815865	43.714203	29.998009	23.496541	4.312114	45.113644	30.178587	12.711704	-4.345162	52.198759	36.375186	1.452645	-8.349252	61.221343	42.514256
-1.375000	-160.147433	-5.066637	-73.570646	0.081462	-0.181788	-0.017472	102.750704	3.830044	-0.472701	12.655113	9.347591	-25.972464	-41.336812	28.989401	6.821176	43.714864	30.000152	23.487407	4.317666	45.110755	30.176928	12.709213	-4.347783	52.214027	36.382270	1.460305	-8.339346	61.204879	42.503339
-1.365000	-160.147433	-5.066637	-73.570646	0.081460	-0.181785	-0.017472	102.771345	3.840078	-0.477041	12.657632	9.323860	-25.978940	-41.331540	28.991328	6.828253	43.714428	29.998307	23.482839	4.322576	45.112772	30.176314	12.713732	-4.351898	52.229730	36.387380	1.468878	-8.330349	61.194150	42.496114
-1.355000	-160.147433	-5.066637	-73.570646	0.081456	-0.181788	-0.017470	102.779275	3.846029	-0.484263	12.650212	9.330063	-25.985701	-41.330103	28.998466	6.835829	43.710875	29.992180	23.480618	4.326146	45.123383	30.179760	12.723536	-4.357694	52.245628	36.391510	1.475466	-8.323838	61.190724	42.494734
-1.345000	-160.147433	-5.066637	-73.570646	0.081451	-0.181793	-0.017467	102.773832	3.846983	-0.492067	12.633450	9.368631	-25.992304	-41.331570	29.011955	6.842389	43.706205	29.984376	23.477328	4.328160	45.144820	30.189378	12.735209	-4.364557	52.261841	36.395541	1.479326	-8.319828	61.192822	42.498233
-1.335000	-160.147433	-5.066637	-73.570646	0.081446	-0.181798	-0.017463	102.760508	3.844674	-0.498346	12.611361	9.429517	-25.997700	-41.334172	29.030046	6.846867	43.704560	29.978520	23.470922	4.328770	45.175459	30.204529	12.744744	-4.371209	52.278303	36.399827	1.481085	-8.316917	61.197211	42.503817
-1.325000	-160.147433	-5.066637	-73.570646	0.081440	-0.181801	-0.017459	102.747307	3.842083	-0.501743	12.589131	9.494925	-26.001552	-41.337563	29.049383	6.848872	43.708753	29.976761	23.462242	4.328402	45.208690	30.221177	12.748730	-4.376265	52.294386	36.404236	1.481065	-8.313292	61.201628	42.509095
-1.315000	-160.147433	-5.066637	-73.570646	0.081436	-0.181800	-0.017454	102.740257	3.841449	-0.501777	12.570538	9.547272	-26.005165	-41.343571	29.066844	6.848512	43.717760	29.978450	23.454321	4.327695	45.234777	30.233420	12.745159	-4.378894	52.309236	36.408667	1.478274	-8.307898	61.206014	42.513623
-1.305000	-160.147433	-5.066637	-73.570646	0.081434	-0.181797	-0.017450	102.740725	3.843025	-0.498729	12.556369	9.576629	-26.010873	-41.354462	29.080763	6.846219	43.727023	29.980886	23.450032	4.327378	45.245535	30.236735	12.733751	-4.379206	52.322755	36.413693	1.471125	-8.301111	61.211888	42.518793
-1.295000	-160.147433	-5.066637	-73.570646	0.081434	-0.181793	-0.017448	102.745711	3.845238	-0.493446	12.544637	9.584147	-26.020260	-41.370126	29.091009	6.842785	43.731433	29.981540	23.449944	4.328026	45.239153	30.230944	12.715828	-4.378109	52.336304	36.420748	1.459322	-8.294571	61.220512	42.526337
-1.285000	-160.147433	-5.066637	-73.570646	0.081434	-0.181790	-0.017448	102.750329	3.845898	-0.487058	12.532377	9.579906	-26.032936	-41.386861	29.098150	6.839381	43.728902	29.980130	23.451885	4.329801	45.221683	30.220761	12.693823	-4.376745	52.352083	36.431430	1.445187	-8.290355	61.231287	42.536645
-1.275000	-160.147433	-5.066637	-73.570646	0.081434	-0.181787	-0.017450	102.750696	3.843576	-0.480610	12.517854	9.576722	-26.047081	-41.399215	29.102482	6.837305	43.722077	29.979079	23.452351	4.332371	45.203839	30.213294	12.670603	-4.375839	52.371310	36.446208	1.433106	-8.289991	61.241632	42.548147
-1.265000	-160.147433	-5.066637	-73.570646	0.081432	-0.181784	-0.017453	102.745758	3.838383	-0.474733	12.501700	9.583579	-26.061212	-41.403553	29.103703	6.837574	43.717063	29.982071	23.448674	4.335123	45.195186	30.214090	12.648883	-4.375406	52.392671	36.463484	1.427406	-8.293875	61.248646	42.558200
-1.255000	-160.147433	-5.066637	-73.570646	0.081430	-0.181782	-0.017457	102.737446	3.831862	-0.469584	12.486166	9.602181	-26.075376	-41.400465	29.101489	6.840625	43.720103	29.991734	23.440538	4.337516	45.199523	30.224289	12.630914	-4.374962	52.412538	36.479867	1.430211	-8.301376	61.251495	42.564848
-1.245000	-160.147433	-5.066637	-73.570646	0.081427	-0.181778	-0.017459	102.729313	3.826097	-0.465099	12.473001	9.627845	-26.090524	-41.394191	29.096547	6.846272	43.734274	30.007876	23.430106	4.339323	45.214031	30.240488	12.618337	-4.374045	52.426954	36.491666	1.440580	-8.311461	61.252784	42.568182
-1.235000	-160.147433	-5.066637	-73.570646	0.081424	-0.181774	-0.017460	102.724322	3.822540	-0.461319	12.461484	9.653423	-26.106648	-41.389760	29.091370	6.853825	43.757905	30.027143	23.420863	4.340622	45.231898	30.256955	12.611964	-4.372578	52.433877	36.496656	1.455121	-8.323314	61.257678	42.570305
-1.225000	-160.147433	-5.066637	-73.570646	0.081422	-0.181770	-0.017460	102.722917	3.821158	-0.458452	12.448126	9.673733	-26.121550	-41.390101	29.090085	6.862254	43.785153	30.044124	23.415968	4.341609	45.246203	30.268564	12.611450	-4.370842	52.434102	36.495031	1.469438	-8.336488	61.271005	42.573889
-1.215000	-160.147433	-5.066637	-73.570646	0.081419	-0.181767	-0.017458	102.722459	3.820424	-0.456510	12.428399	9.688251	-26.131547	-41.394853	29.097230	6.870363	43.808151	30.053359	23.416904	4.342419	45.252824	30.272844	12.615022	-4.369135	52.430518	36.489127	1.479581	-8.350483	61.294036	42.580309
-1.205000	-160.147433	-5.066637	-73.570646	0.081416	-0.181766	-0.017456	102.718478	3.818195	-0.454827	12.399378	9.700980	-26.133632	-41.401021	29.115926	6.876995	43.819811	30.051452	23.422981	4.343079	45.251410	30.270437	12.619580	-4.367467	52.426626	36.482308	1.483027	-8.364046	61.322895	42.588586
